<svg width="2016" height="872" viewBox="0 0 2016 872" fill="none" xmlns="http://www.w3.org/2000/svg">
<path d="M21.8514 80.9109L610.007 80.7578C610.689 137.022 610.055 194.583 610.054 250.953C545.142 250.144 478.37 250.908 413.257 250.907L21.8047 250.853L21.8514 80.9109Z" fill="#241D1F"/>
<path d="M520.008 107.219C526.851 106.078 549.941 105.784 556.398 107.169L577.38 107.223L577.034 125.609C584.367 126.627 590.87 127.191 591.942 136.137C590.398 143.951 583.342 143.922 577.003 144.049L577.162 185.724C584.51 186.318 590.625 186.36 591.928 195.234C590.424 203.372 583.456 202.92 577.02 202.937C576.98 209.979 577.293 217.399 577.48 224.469L512.791 224.528C501.845 232.292 499.479 232.388 489.033 224.444L421.884 224.451C422.238 217.494 421.973 209.84 421.867 202.819C415.126 202.778 408.052 203.144 407.25 194.361C409.334 185.985 415.005 186.212 422.225 186.022C422.233 171.975 422.159 157.928 422.005 143.881C416.513 143.92 408.616 143.944 407.433 136.739C407.103 134.611 407.673 132.442 409.007 130.751C412.402 126.374 416.984 126.424 422.209 125.853L422.178 107.316C431.645 107.011 440.915 107.39 450.606 106.954C459.42 106.204 475.47 105.784 484.199 107.384C493.663 110.826 491.863 111.014 499.581 117.454C503.945 117.112 503.552 109.551 520.008 107.219Z" fill="white"/>
<path d="M422.178 107.315C431.645 107.01 440.915 107.389 450.606 106.953C455.286 108.537 458.728 108.749 462.763 109.995C461.816 108.64 455.242 109.855 453.87 110.104L452.822 110.906L448.573 111.041C446.062 111.536 444.456 111.576 442.636 113.323C446.064 121.938 442.468 185.601 444.178 201.279C445.336 200.775 446.329 200.002 447.39 199.283L448.604 200.935C454.956 202.255 467.999 201.994 474.856 201.902C482.555 201.796 494.346 204.707 501.113 203.964C518.553 202.047 534.61 201.546 552.154 201.524L557.247 202.79C556.691 193.112 556.053 117.113 558.382 113.342C556.924 111.665 554.603 111.421 552.139 110.645L550.878 110.113L550.914 109.065L556.398 107.168L577.38 107.222L577.034 125.609C584.367 126.626 590.87 127.19 591.942 136.137C590.398 143.95 583.342 143.922 577.003 144.049L577.162 185.723C584.51 186.317 590.625 186.359 591.928 195.233C590.424 203.371 583.456 202.919 577.02 202.936C576.98 209.978 577.293 217.398 577.48 224.468L512.791 224.527C501.845 232.291 499.479 232.387 489.033 224.443L421.884 224.45C422.238 217.493 421.973 209.839 421.867 202.818C415.126 202.778 408.052 203.143 407.25 194.36C409.334 185.984 415.005 186.212 422.225 186.021C422.233 171.974 422.159 157.927 422.005 143.88C416.513 143.92 408.616 143.943 407.433 136.738C407.103 134.61 407.673 132.441 409.007 130.75C412.402 126.373 416.984 126.424 422.209 125.852L422.178 107.315Z" fill="#241D1F"/>
<path d="M557.249 202.793C556.693 193.114 556.055 117.115 558.384 113.344C559.701 114.698 562.986 118.085 563.122 119.795C565.251 146.612 564.146 182.272 564.031 208.89L557.249 202.793Z" fill="white"/>
<path d="M442.639 113.328C446.066 121.943 442.47 185.607 444.18 201.284C442.827 203.855 439.308 206.747 437.07 208.814C436.857 179.361 436.826 149.906 436.976 120.452C438.248 118.189 440.869 115.375 442.639 113.328Z" fill="white"/>
<path d="M426.107 111.033C429.827 111.058 434.429 110.854 437.927 111.849C436.939 113.316 433.316 118.669 433.25 120.063C432.845 128.684 433.2 138.305 433.203 146.93L433.162 215.218C441.099 215.376 484.857 213.989 487.918 217.212L487.794 219.484C484.492 221.607 469.412 220.807 464.212 220.829L426.163 220.782L426.131 198.951C420.78 199.124 412.743 200.569 411.664 193.79C414.58 188.508 420.701 189.439 426.134 189.251L426.114 139.905C420.889 140.007 412.573 141.347 411.952 134.518C415.296 129.765 420.86 130.845 426.15 130.906L426.107 111.033Z" fill="white"/>
<path d="M561.785 111.283C566.554 111.078 568.433 110.413 572.06 112.66C574.776 116.926 573.582 125.249 573.414 130.765C578.474 130.76 586.62 129.773 587.349 136.346C584.276 141.113 578.66 139.976 573.496 139.934L573.538 189.235C579.015 189.397 586.906 188.377 587.542 195.393C584.175 200.268 579.05 199.13 573.618 199.092L573.627 220.717L546.081 220.87C540.456 220.874 517.087 221.709 513.886 219.428L513.562 217.194C517.424 213.403 559.531 215.323 567.814 215.251C567.65 186.228 568.49 147.58 567.245 117.91C567.196 116.735 562.977 112.493 561.785 111.283Z" fill="white"/>
<path d="M518.298 205.175C526.169 205.337 556.137 201.985 558.224 209.77L556.923 211.329L552.037 211.607C543.425 211.672 515.73 212.858 509.524 209.023L509.391 207.751C511.925 205.397 514.81 205.522 518.298 205.175Z" fill="white"/>
<path d="M448.907 205.189C455.502 205.102 489.866 202.821 491.231 209.256C488.77 211.577 489.99 210.931 486.528 211.582C471.057 211.638 455.587 211.589 440.117 211.434C442.836 208.889 445.328 206.025 448.907 205.189Z" fill="white"/>
<path d="M499.981 209.319C504.682 208.926 508.822 212.398 509.25 217.096C509.679 221.793 506.237 225.957 501.541 226.421C496.797 226.888 492.579 223.402 492.145 218.656C491.712 213.909 495.23 209.717 499.981 209.319Z" fill="white"/>
<path d="M551.602 111.125L552.141 110.648C554.605 111.425 556.926 111.669 558.384 113.345C556.055 117.117 556.693 193.115 557.249 202.794L552.156 201.527L552.333 142.075C552.346 135.114 552.75 117.099 551.602 111.125Z" fill="#241D1F"/>
<path d="M442.641 113.328C444.461 111.581 446.066 111.541 448.577 111.047C448.457 136.067 447.256 176.631 448.608 200.941L447.394 199.288C446.333 200.008 445.341 200.78 444.182 201.284C442.472 185.607 446.068 121.943 442.641 113.328Z" fill="#241D1F"/>
<path d="M484.204 107.384C493.669 110.826 491.868 111.014 499.587 117.454C503.95 117.112 503.558 109.551 520.013 107.219C521.438 107.754 524.208 108.644 525.273 109.534C524.736 109.67 522.259 110.266 521.926 110.45C507.924 112.396 505.878 116.071 500.271 128.096C494.491 116.888 493.901 113.578 481.164 110.863C482.081 108.513 481.909 109.176 484.204 107.384Z" fill="#241D1F"/>
<path d="M520.008 107.219C526.85 106.078 549.941 105.784 556.397 107.169L550.913 109.066L550.878 110.114L552.139 110.646L551.599 111.122C545.748 111.128 526.874 111.583 521.92 110.45C522.253 110.266 524.731 109.67 525.267 109.534C524.202 108.644 521.432 107.754 520.008 107.219Z" fill="#241D1F"/>
<path d="M450.609 106.955C459.423 106.205 475.474 105.785 484.202 107.385C481.908 109.178 482.079 108.514 481.162 110.865C476.695 111.518 457.596 111.052 452.825 110.908L453.874 110.106C455.246 109.857 461.819 108.642 462.766 109.998C458.731 108.752 455.289 108.539 450.609 106.955Z" fill="#241D1F"/>
<path d="M496.982 132.133C498.52 132.16 499.386 132.586 500.815 133.101C504.48 137.445 513.402 173.559 516.846 182.997C498.731 183.787 510.192 177.834 502.669 167.645C481.088 167.653 494.582 173.894 489.329 182.729C486.725 183.173 485.591 183.532 482.977 182.811C482.957 182.576 495.559 139.245 496.982 132.133Z" fill="#241D1F"/>
<path d="M497.395 146.398C500.115 149.789 503.867 161.199 500.95 164.959C498.706 164.78 497.257 164.576 495.049 164.194L493.706 161.924C492.959 157.678 495.891 150.815 497.395 146.398Z" fill="white"/>
<path d="M528.516 132.838C534.652 132.347 538.537 133.454 544.524 134.726C544.724 139.233 544.378 145.797 544.255 150.443C541.6 144.663 538.579 135.641 532.199 133.916C529.062 135.443 530.063 134.762 528.033 137.781C526.527 148.568 533.21 150.203 540.576 156.588C553.569 167.854 550.159 176.025 535.84 183.657C529.466 183.076 525.201 182.738 518.821 182.88C518.819 178.455 518.544 174.089 519.895 169.885C522.951 169.835 524.622 178.559 531.487 181.4C539.137 180.749 541.782 172.377 537.985 167.044C529.916 155.708 507.693 146.251 528.516 132.838Z" fill="#241D1F"/>
<path d="M453.068 132.931C464.226 133.884 473.953 133.682 485.029 132.812C485.226 137.857 484.992 143.649 484.897 148.759C482.444 144.531 479.753 137.278 474.413 137.512C470.817 141.58 472.542 167.865 472.607 175.105C473.474 178.77 474.093 178.777 473.067 181.813C469.314 183.799 470.855 183.496 466.761 183.371C466.08 182.97 465.275 182.498 464.35 181.954C462.693 174.042 467.647 142.83 463.253 137.147L461.26 137.218C457.493 139.885 455.324 144.883 453.072 149.041C452.953 143.795 453.057 138.206 453.068 132.931Z" fill="#241D1F"/>
<path d="M81.2017 107.19C90.5885 105.872 98.8261 106.241 108.184 107.376C118.524 111.08 119.62 111.185 126.927 119.696C128.017 117.986 129.255 116.374 130.627 114.88C142.142 102.359 180.459 107.601 198.916 106.906L198.866 125.553C206.165 126.559 211.976 127.079 213.508 135.737C211.985 143.858 205.594 143.908 198.885 144.089L198.906 185.833C205.748 186.179 212.96 186.458 213.488 195.332C211.345 203.392 205.731 202.947 198.894 203.003L198.962 224.498L137.951 224.554C127.516 233.017 124.785 231.982 114.408 224.474C94.0818 224.543 73.7557 224.508 53.4301 224.371C53.505 219.739 54.0222 208.323 52.8306 204.558C52.0686 202.15 39.8664 203.571 37.5781 194.472C39.4743 186.732 47.2825 186.391 53.5856 185.916C53.1015 173.102 54.2798 159.855 53.1459 147.178C52.6108 141.195 40.7038 146.877 38.7148 134.741C40.8059 126.702 46.2498 126.638 53.5141 125.952C53.4128 119.702 53.5941 113.242 53.6927 106.973C60.8538 106.473 73.5653 107.037 81.2017 107.19Z" fill="#241D1F"/>
<path d="M85.8346 110.438C89.8018 111.404 100.075 111.361 104.212 110.911C129.434 113.643 124.452 134.076 124.402 154.015L124.188 205.459C105.854 199.616 99.0148 202.207 80.5881 201.429L75.4364 202.726C76.2239 191.001 75.5523 171.776 75.6766 159.256C75.7967 147.138 76.2974 123.587 74.9766 112.436C76.2627 111.809 79.0325 111.359 80.5465 111.051L85.8346 110.438Z" fill="white"/>
<path d="M74.9766 112.433C76.2627 111.806 79.0325 111.355 80.5465 111.047C80.5545 140.404 79.8977 172.299 80.5881 201.425L75.4364 202.722C76.2239 190.997 75.5523 171.772 75.6766 159.252C75.7967 147.134 76.2974 123.584 74.9766 112.433Z" fill="#241D1F"/>
<path d="M84.9297 133.246C87.5482 133.066 90.1169 133.097 92.7398 133.097C100.452 138.761 96.1742 160.547 102.15 166.688C108.577 162.839 111.476 141.736 111.622 134.393L115.874 132.516L118.879 133.798C119 135.636 116.245 141.121 115.364 143.035C113.24 150.372 106.192 181.41 99.5757 182.448C94.0272 177.65 91.2292 145.643 85.1285 133.63L84.9297 133.246Z" fill="#241D1F"/>
<path d="M74.9771 112.43C76.298 123.581 75.7973 147.132 75.6771 159.249C75.5529 171.769 76.2244 190.994 75.4369 202.719C73.4154 204.636 70.8807 206.721 68.7412 208.573L68.3505 137.007C68.384 125.605 67.2742 120.103 74.9771 112.43Z" fill="white"/>
<path d="M81.2031 107.19C90.5899 105.872 98.8276 106.241 108.185 107.376C106.904 108.398 105.167 109.638 104.214 110.911C100.077 111.361 89.8036 111.404 85.8364 110.438C86.8432 109.896 88.1674 109.84 89.3719 109.659L87.9608 110.074L89.8734 109.221C86.2004 108.92 84.7314 108.353 81.2031 107.19Z" fill="#241D1F"/>
<path d="M142.678 111.446C152.52 110.756 163.187 111.066 173.108 111.15C173.506 141.018 173.157 171.652 173.161 201.583L152.335 201.617C142.454 201.419 138.081 202.607 128.581 205.403C128.346 190.459 125.772 130.419 131.068 120.198C133.541 115.423 137.735 113.06 142.678 111.446Z" fill="white"/>
<path d="M162.109 133.403L163.49 133.266L164.911 134.455C165.975 139.112 165.28 145.359 165.007 150.251C160.947 144.344 161.247 138.378 154.367 135.2C150.592 135.329 152.036 134.878 148.872 136.877C147.243 142.207 146.177 150.091 150.214 154.469C153.561 154.339 153.547 153.524 156.804 151.199L158.051 151.733C158.497 156.223 158.467 157.938 158.092 162.442L157.064 162.976C155.017 161.37 153.936 160.464 151.575 159.225C145.177 160.839 147.088 173.523 148.33 178.478C151.178 180.004 155.184 179.255 158.528 178.974C161.755 175.432 163.72 169.672 165.619 165.138C166.33 171.069 166.212 177.072 166.244 183.051C156.726 182.878 147.205 182.876 137.688 183.043C140.544 169.513 140.145 147.691 138.669 133.826C146.479 133.567 154.294 133.426 162.109 133.403Z" fill="#241D1F"/>
<path d="M179.066 113.255C180.318 112.85 181.176 112.069 182.237 111.274L194.902 111.109L194.982 130.783C199.887 130.821 209.182 129.778 208.819 136.73C204.876 140.997 200.427 139.986 194.989 139.89L194.998 189.22C200.632 189.432 205.567 188.522 209.127 193.439C208.554 200.348 200.202 199.143 194.907 199.114L194.843 220.687C186.835 220.711 143.211 222.563 139.25 219.3L139.382 216.292C146.158 211.798 183.094 219.852 188.861 212.785L183.005 208.289L177.039 201.98C175.299 175.219 177.166 146.091 176.671 119.154C176.611 115.901 176.853 115.139 179.066 113.255Z" fill="white"/>
<path d="M177.04 201.983C175.3 175.222 177.167 146.094 176.672 119.157C176.612 115.904 176.854 115.142 179.067 113.258C180.149 114.535 183.979 118.983 183.851 120.247C182.429 134.325 187.026 198.56 183.006 208.292L177.04 201.983Z" fill="white"/>
<path d="M179.062 113.262C180.315 112.858 181.173 112.076 182.233 111.281L188.462 118.037C189.341 147.466 187.172 185.152 188.857 212.792L183.002 208.297C187.021 198.565 182.424 134.329 183.847 120.251C183.975 118.988 180.144 114.54 179.062 113.262Z" fill="#241D1F"/>
<path d="M57.9462 110.993C61.1143 110.942 65.6535 110.569 68.4805 111.659L68.7244 113.294L64.9652 118.347L64.9407 215.173C76.2226 215.495 103.732 214.325 113.12 216.289L114.013 217.847L112.86 219.745C109.346 221.888 92.5862 220.871 87.3636 220.787C77.7218 220.725 67.7323 220.952 58.0621 221.058L57.9707 198.995C52.8867 199.135 44.5539 200.45 43.7578 193.803C47.0581 188.562 52.2842 189.416 57.9912 189.118L57.961 139.915C52.8046 140 44.5438 141.29 43.9786 134.545C47.5695 129.858 52.5504 130.838 57.9847 130.861L57.9462 110.993Z" fill="white"/>
<path d="M162.654 205.227L167.186 205.096C174.794 204.927 175.473 206.14 181.054 211.455C170.593 211.636 159.867 211.562 149.38 211.61C143.229 211.761 140.401 212.657 135.853 209.002L135.82 207.516C140.491 204.257 156.329 205.178 162.654 205.227Z" fill="white"/>
<path d="M82.3923 205.157C88.7234 205.101 113.513 203.77 117.086 207.982L116.521 210.017C113.572 212.081 113.734 211.416 109.511 211.593L71.8672 211.444C75.4457 207.967 77.4765 205.527 82.3923 205.157Z" fill="white"/>
<path d="M126.056 209.308C130.691 209.072 134.677 212.556 135.061 217.18C135.445 221.805 132.089 225.899 127.478 226.429C124.363 226.789 121.299 225.422 119.484 222.865C117.669 220.308 117.391 216.964 118.76 214.143C120.127 211.321 122.923 209.469 126.056 209.308Z" fill="white"/>
<path d="M269.044 107.11C275.619 105.926 290.563 106.057 297.245 107.354C301.362 108.619 308.349 110.848 311.303 113.88C313.451 116.085 313.664 117.316 316.406 119.494C329.076 101.385 362.368 106.934 382.535 107.339L382.69 125.707C389.602 126.63 395.745 127.373 396.768 135.736C394.984 143.645 389.507 143.768 382.663 144.279L382.7 185.869C386.404 186.05 388.139 186.244 391.779 186.937C406.234 197.633 391.526 200.742 383.149 204.401C381.905 208.816 382.509 219.292 382.618 224.369L327.567 224.538C316.782 232.894 314.5 231.767 303.943 224.437L238.881 224.465L238.948 202.907C232.168 202.733 224.729 203.354 223.742 194.433C225.895 186.05 231.714 186.33 238.972 185.967L238.883 143.899C232.05 143.688 224.964 144.102 223.797 135.311C225.554 126.788 231.844 126.655 239.093 125.904L238.931 107.233L269.044 107.11Z" fill="#241D1F"/>
<path d="M269.047 107.11C275.622 105.926 290.566 106.058 297.249 107.354L293.925 110.902C319.167 113.538 314.205 135.001 314.145 154.669L313.967 205.55C297.993 200.029 281.664 201.473 264.72 201.581L264.695 111.162C266.376 110.631 268.041 110.052 269.689 109.427L269.047 107.11Z" fill="white"/>
<path d="M269.047 107.11C275.622 105.926 290.566 106.058 297.249 107.354L293.925 110.902C290.527 111.388 269.284 111.143 264.695 111.162C266.376 110.631 268.041 110.052 269.689 109.427L269.047 107.11Z" fill="#241D1F"/>
<path d="M274.414 133.011L277.132 132.993C297.015 132.915 318.526 138.495 295.951 158.95C298.866 165.509 306.154 176.303 306.771 182.151L305.592 183.351C298.924 183.437 299.282 183.182 296.046 177.776C292.135 169.315 289.282 164.296 284.557 156.427C284.383 164.849 283.395 173.867 285.992 181.823L286.185 182.402L284.171 183.449C281.278 183.423 277.216 183.601 274.58 182.716C275.579 170.351 277.652 144.925 274.51 133.354L274.414 133.011Z" fill="#241D1F"/>
<path d="M285.277 135.672C298.143 136.005 299.071 145.061 293.654 154.787C292.204 155.104 289.819 155.63 288.412 155.54C281.407 155.084 284.323 140.046 285.277 135.672Z" fill="white"/>
<path d="M355.584 110.798C356.936 111.145 359.969 111.801 361.032 112.447L367.36 119.899C367.84 149.553 367.837 179.213 367.351 208.867L360.514 202.556L355.413 201.562C339.479 201.542 333.222 200.797 318.07 205.414C317.734 188.914 316.988 134.789 319.18 121.904C329.199 107.744 339.917 111.212 355.584 110.798Z" fill="white"/>
<path d="M361.036 112.445L367.363 119.897C367.844 149.551 367.841 179.211 367.355 208.865L360.517 202.554C359.927 186.96 360.604 168.964 360.341 153.125C360.171 142.803 359.858 121.84 361.036 112.445Z" fill="white"/>
<path d="M355.584 110.797C356.937 111.144 359.97 111.8 361.033 112.446C359.855 121.842 360.168 142.804 360.338 153.126C360.601 168.965 359.923 186.961 360.514 202.555L355.414 201.561C356.242 172.71 355.394 140.04 355.584 110.797Z" fill="#241D1F"/>
<path d="M331.789 134.116L342.032 134.039C340.532 145.518 340.061 172.785 342.379 183.916C338.588 184.083 337.397 184.101 333.681 183.474C331.532 181.343 333.261 175.066 333.218 171.484C333.083 159.897 334.889 145.154 331.789 134.116Z" fill="#241D1F"/>
<path d="M242.538 111.087C245.673 111.022 250.746 110.563 253.436 111.745C253.613 114.464 251.901 115.684 249.926 118.331C249.085 149.586 249.761 183.821 249.74 215.311C258.473 215.26 299.471 212.872 303.293 218.98L302.397 220.18C294.693 220.887 286.588 220.784 278.825 220.828L242.755 220.714L242.459 198.992C237.199 199.128 229.219 200.445 228.141 193.803C231.458 188.559 236.922 189.418 242.6 189.183C242.495 172.767 242.552 156.349 242.773 139.934C237.644 140.027 229.475 141.299 228.272 134.909C231.68 129.879 236.973 130.867 242.53 130.789L242.538 111.087Z" fill="white"/>
<path d="M371.251 117.953C369.225 115.576 367.253 114.25 367.407 111.769C369.962 110.541 375.041 110.972 378.084 111.011L378.091 130.868C383.465 130.853 388.516 129.876 392.056 134.54C391.546 141.259 383.191 139.958 378.13 139.843L378.104 189.304C383.858 189.44 388.577 188.438 392.232 193.433C391.713 200.455 383.42 199.129 378.088 199.021L378.084 220.537C374.55 219.943 373.683 220.408 371.399 218.401L371.498 215.265C370.582 183.718 371.225 149.68 371.251 117.953Z" fill="white"/>
<path d="M260.197 112.898C262.231 118.457 261.316 189.026 260.741 200.687C260.609 203.358 256.809 206.068 254.591 207.936C252.196 202.085 253.661 138.223 253.431 127.109C253.255 118.716 254.724 117.968 260.197 112.898Z" fill="white"/>
<path d="M265.417 205.128C273.603 205.112 300.836 204.082 306.322 207.338L306.618 209.047C304.025 211.657 305.207 210.943 301.463 211.596C286.559 211.679 271.653 211.611 256.75 211.391C259.432 208.83 261.852 205.987 265.417 205.128Z" fill="white"/>
<path d="M371.495 215.27L371.396 218.406C373.68 220.412 374.547 219.948 378.081 220.541C372.996 221.369 331.625 221.55 328.727 219.275C328.816 216.771 328.465 217.656 329.901 215.829C337.859 214.581 362.16 215.286 371.495 215.27Z" fill="white"/>
<path d="M315.421 209.369C319.989 209.018 324.024 212.33 324.569 216.879C325.114 221.429 321.976 225.599 317.452 226.336C314.351 226.841 311.222 225.606 309.304 223.118C307.384 220.63 306.985 217.29 308.262 214.42C309.539 211.549 312.287 209.61 315.421 209.369Z" fill="white"/>
<path d="M335.923 205.215L356.87 204.969L364.228 211.288L352.523 211.617C346.207 211.709 328.823 213.299 325.148 208.672L325.489 207.109C328.654 205.168 332.201 205.366 335.923 205.215Z" fill="white"/>
<path d="M22.0859 272.578L34.3641 272.749C54.0044 284.751 57.6606 301.059 47.6355 321.288C49.5152 320.391 51.4083 319.522 53.3145 318.683C61.331 315.243 70.7403 314.979 78.825 318.348C86.6522 321.651 92.791 328.006 95.8205 335.943C100.312 347.429 98.0937 356.094 93.5664 366.619C95.0406 365.813 96.5454 365.065 98.0774 364.375C122.877 353.322 148.166 373.745 143.163 400.442C142.328 404.898 140.712 408.578 138.962 412.732L139.26 412.593C149.838 407.758 158.933 405.157 170.436 410.083C178.079 413.381 184.091 419.592 187.133 427.338C191.673 438.625 189.508 447.436 185.175 457.907C213.793 443.978 241.3 468.384 228.87 498.148C221.407 516.015 201.644 518.543 184.895 510.392C187.475 516.554 188.469 518.8 189.593 525.338C189.839 531.819 189.564 536.323 186.976 542.563C183.904 550.108 177.901 556.084 170.341 559.124C159.312 563.615 149.782 561.617 139.334 557.302C148.435 577.637 144.187 591.013 127.305 604.573C118.166 593.862 99.3763 562.688 92.3933 549.372C45.0106 459.026 24.6889 373.63 22.0859 272.578Z" fill="#241D1F"/>
<path d="M597.658 272.738L610.136 272.406C609.549 372.074 579.099 485.83 526.803 570.613C520.545 580.759 512.157 595.258 505.048 604.429C492.109 595.953 486.029 584.542 489.016 568.479C489.545 565.637 491.968 560.277 491.359 558.061C469.201 566.965 450.462 560.043 443.015 536.447C441.215 525.908 443.029 520.558 446.881 511.196C429.23 517.945 409.55 516.184 401.83 496.289C398.692 488.177 398.936 479.147 402.507 471.215C410.974 452.351 430.391 450.5 447.33 458.177L447.132 457.74C446.297 455.853 445.452 454.026 444.688 452.106C441.423 443.716 441.621 434.373 445.238 426.128C448.643 418.478 454.99 412.526 462.844 409.618C474.384 405.304 482.83 408.048 493.202 412.64C477.05 378.987 505.92 348.5 537.897 366.879C537.242 365.28 536.612 363.673 536.006 362.056C532.641 353.016 532.279 343.155 536.467 334.279C540.157 326.394 546.894 320.348 555.132 317.527C566.294 313.794 574.469 316.415 584.178 321.382C575.122 301.347 577.181 284.179 597.658 272.738Z" fill="#241D1F"/>
<path d="M308.383 566.106C338.98 562.728 355.296 587.581 341.135 614.134C342.759 613.342 344.417 612.619 346.103 611.968C355.149 608.436 364.993 607.886 374.023 611.969C381.55 615.366 387.408 621.629 390.295 629.364C394.595 640.753 392.028 649.459 387.294 659.752C413.346 647.438 433.075 657.464 438.494 685.724C407.382 720.468 359.023 756.381 321.4 783.374C319.245 785.016 318.658 785.6 315.936 786.308C310.377 783.648 298.1 774.631 292.506 770.579C259.412 746.604 221.032 715.804 193.352 685.419C198.672 657.837 218.961 646.964 244.528 660.048L244.253 659.389C239.861 648.697 237.487 638.689 242.438 627.454C245.713 619.975 251.872 614.136 259.515 611.264C271.463 606.742 280.91 609.838 291.633 614.746C276.733 596.924 287.546 573.678 308.383 566.106Z" fill="#241D1F"/>
<path d="M194.039 272.681C273.509 271.343 358.232 271.917 437.856 272.639C438.928 306.166 419.348 321.084 387.434 309.015C397.022 327.878 393.127 344.618 375.203 356.425C374.422 356.756 373.636 357.071 372.842 357.369C361.521 361.63 352.109 359.43 341.697 354.681C342.424 356.138 343.085 357.627 343.678 359.143C350.123 375.38 343.622 394.375 326.626 400.376C318.589 403.149 309.774 402.569 302.171 398.767C284.845 390.091 280.834 372.933 289.42 356.332L289.008 355.363C279.321 359.115 267.973 361.966 257.986 357.01C250.039 353.071 243.993 346.124 241.191 337.71C237.875 327.476 239.447 318.419 244.286 309.204C212.608 321.015 192.799 306.087 194.039 272.681Z" fill="#241D1F"/>
<path d="M313.861 437.539C315.465 437.689 317.069 438.129 318.642 438.501C325.44 443.878 324.877 454.833 328.348 462.534C331.829 470.985 340.487 471.989 348.054 474.842C355.11 477.503 353.258 490.353 346.613 492.461C340.393 491.054 332.724 480.157 328.341 474.847C332.959 490.96 338.288 490.257 342.531 501.381C342.173 506.566 337.69 509.921 332.753 510.379C323.901 506.338 325.341 490.085 321.889 485.368C315.242 488.763 326.471 509.62 322.248 517.463L318.031 518.67C313.83 518.399 312.882 519.018 309.807 516.868C306.793 510.626 311.323 500.732 311.75 493.761C312.03 489.181 311.813 485.415 311.573 480.856C308.486 488.814 306.717 511.186 296.403 510.031C287.427 504.331 286.983 501.23 293.927 493.087C299.032 487.101 301.365 482.3 303.817 474.964C299.047 480.634 292.589 489.432 286.078 492.239C280.071 492.17 278.698 486.447 278.695 481.287C278.691 471.373 293.06 474.989 299.275 468.291C307.946 458.947 305.1 445.788 313.861 437.539Z" fill="#241D1F"/>
<path d="M436.082 562.547C446.388 564.662 445.461 578.038 449.513 587.262C454.605 598.851 469.357 594.234 472.082 604.188C473.237 608.408 471.063 613.748 466.722 615.618C460.429 614.498 453.568 603.782 448.412 598.105C449.17 600.122 451.032 605.569 452.137 607.047C456.939 613.475 468.942 627.072 455.811 632.243C445.754 630.429 447.141 616.496 442.172 609.663C438.021 621.254 450.371 635.286 440.976 640.106C436.251 639.844 435.07 640.55 431.674 638.172C428.502 632.307 432.938 622.413 433.293 616.143C433.499 612.478 433.263 608.068 433.106 604.373C429.518 612.211 428.608 632.847 418.443 632.123C414.905 629.824 414.166 629.4 412.028 625.826C411.393 618.631 418.605 613.913 422.078 607.851C423.699 605.021 424.813 601.757 425.893 598.689C420.654 604.228 414.037 615.346 406.293 615.545C405.809 615.25 404.696 614.512 404.457 614.054C394.691 594.075 413.81 600.597 421.735 591.815C429.582 583.119 426.48 570.602 436.082 562.547Z" fill="#241D1F"/>
<path d="M437.036 320.492C447.768 324.357 444.585 338.654 450.949 347.881C456.677 356.187 468.174 352.918 472.22 360.644C473.239 365.475 471.485 371.866 466.648 373.8C460.26 372.063 453.559 361.096 448.559 355.238C451.342 365.129 453.882 367.072 459.398 375.372C463.149 381.016 462.57 387.185 455.992 390.305C445.874 389.001 446.821 372.919 442.046 367.86C439.307 380.406 445.638 386.175 444.395 394.507C442.325 397.495 442.608 396.646 438.266 397.902C435.456 397.641 433.949 397.736 431.649 396.008C428.743 390.774 433.042 379.425 433.282 373.513C433.432 369.848 433.183 365.882 432.987 362.219C429.578 370.61 429.087 381.839 423.265 389.226C419.924 393.465 413.833 387.053 412.007 383.691C411.668 376.316 419.075 371.423 422.531 365.036C424.038 362.253 425.111 358.803 426.078 355.784C420.437 361.178 413.311 375.828 405.281 372.446C393.06 358.14 409.569 355.412 419.184 352.527C431.973 339.685 425.307 327.644 437.036 320.492Z" fill="#241D1F"/>
<path d="M194.137 562.336C202.389 564.925 203.782 579.979 207.421 587.803C213.274 600.389 225.072 594.327 229.379 602.786C230.051 607.673 228.984 613.577 224.142 615.735C218.265 614.921 210.752 604.031 205.992 598.87C210.118 610.09 214.454 614.575 221.342 624.246C218.33 628.021 216.284 631.144 211.535 631.925C200.707 628.588 205.12 615.142 200.401 608.416L198.948 609.546C195.524 617.408 201.365 625.948 202.079 635.858C200.769 639.238 201.532 638.142 197.92 640.112C193.856 639.93 192.223 640.498 189.071 638.504C185.617 632.267 190.246 622.997 190.59 616.135C190.798 611.988 190.437 608.07 190.104 603.952C187.197 612.191 185.666 627.09 179.094 632.047C174.041 632.764 170.458 629.135 169.426 624.37C170.034 616.786 182.385 609.169 180.732 601.942C176.178 603.412 170.628 618.43 163.173 615.619C150.256 601.791 165.553 598.193 176.652 594.5C188.564 580.598 183.513 569.211 194.137 562.336Z" fill="#241D1F"/>
<path d="M195.333 320.484C203.003 324.625 203.208 337.845 207.109 345.874C210.705 356.626 225.036 352.338 228.989 360.072C231.199 364.393 228.615 371.752 223.985 373.614C217.76 372.352 211.106 361.737 205.809 356.042C206.675 358.623 208.008 362.88 209.52 365.341C213.802 372.316 225.726 382.153 214.631 389.278C212.008 390.962 212.197 390.82 209.248 390.105C202.453 384.055 204.389 373.201 200.177 366.233C194.741 372.144 201.845 385.508 201.922 393.653C200.3 397.169 200.883 396.096 196.22 397.822C193.265 397.673 191.231 397.877 188.932 396.052C185.871 390.652 190.377 379.961 190.617 373.809C190.773 369.842 190.429 365.947 190.124 362.006C188.117 367.732 182.555 403.28 171.069 385.928C165.335 377.264 178.357 372.734 180.541 360.988C176.857 361.601 170.806 374.723 162.407 373.523C159.394 370.991 158.874 362.659 159.751 359.212C161.849 354.733 171.114 354.929 174.79 353.2C189.014 346.509 181.177 325.965 195.333 320.484Z" fill="#241D1F"/>
<path d="M329.102 448.55C330.101 448.527 331.1 448.519 332.1 448.525C335.783 448.565 336.291 448.525 338.474 450.749C339.069 453.807 337.005 457.724 335.774 460.762C335.162 461.556 334.611 461.787 333.752 462.354C330.346 459.97 329.676 452.558 329.102 448.55Z" fill="#241D1F"/>
<path d="M292.805 448.668C296.965 448.54 298.954 448.062 301.886 450.187C303.021 453.262 301.094 457.937 300.109 461.297L298.509 462.13L296.666 461.383C294.214 457.896 293.649 452.94 292.805 448.668Z" fill="#241D1F"/>
<path d="M414.383 331.668C418.621 331.509 421.431 330.864 424.492 333.245C425.092 336.138 423.145 340.17 422.042 343.112L420.677 344.507L419.196 344.155C416.779 341.066 415.544 335.581 414.383 331.668Z" fill="#241D1F"/>
<path d="M414.68 573.85C418.442 573.52 421.717 572.687 424.518 575.327C425.036 578.287 422.985 582.296 421.796 585.255L419.958 586.133C416.762 583.789 415.536 577.571 414.68 573.85Z" fill="#241D1F"/>
<path d="M449.547 331.539C453.575 331.57 455.49 331.045 458.614 332.882C459.592 335.63 457.299 340.291 456.193 343.249L454.779 344.642C451.294 342.114 450.416 335.785 449.547 331.539Z" fill="#241D1F"/>
<path d="M206.781 331.628C209.99 331.453 212.885 330.883 215.491 332.626C216.367 336.187 214.826 339.329 213.757 343.259C213.447 343.665 212.604 344.202 212.186 344.506C208.523 342.498 207.62 335.551 206.781 331.628Z" fill="#241D1F"/>
<path d="M449.273 573.642C453.107 573.581 455.614 573.109 458.631 574.862C459.484 577.724 457.595 581.467 456.482 584.425L455.221 586.021L453.452 585.381C451.195 582.181 450.297 577.512 449.273 573.642Z" fill="#241D1F"/>
<path d="M206.711 573.633C209.942 573.462 212.881 572.887 215.491 574.651C216.358 578.333 214.778 581.319 213.61 585.35L212.226 586.208C208.641 584.363 207.548 577.37 206.711 573.633Z" fill="#241D1F"/>
<path d="M773.634 0H790.006L790.046 872H773.625L773.634 0Z" fill="#241D1F"/>
<path d="M943.503 347.541C975.479 347.662 1016.32 344.735 1046.96 351.61C1073.3 357.52 1084.21 388.735 1076.38 412.344C1071.91 425.873 1061.6 431.386 1049.63 437.292C1081.45 445.041 1093.64 471.166 1082.53 501.216C1066.69 538.144 1025.66 534.154 992.082 534.072L943.622 533.906C942.706 509.046 943.26 481.16 943.256 456.106C943.117 419.917 943.198 383.728 943.503 347.541Z" fill="#241D1F"/>
<path d="M985.27 450.904C998.155 450.795 1014.05 449.703 1026.44 452.845C1046.83 458.022 1049.6 482.515 1037.16 497.179C1025.76 507.145 1000.4 504.415 985.122 504.269C984.974 486.48 985.024 468.691 985.27 450.904Z" fill="white"/>
<path d="M985.139 376.088C996.479 376.032 1010.43 375.169 1021.4 377.371C1040.93 381.292 1042.47 404 1032.66 417.974C1020.36 426.613 1000.14 424.311 985.109 424.088L985.139 376.088Z" fill="white"/>
<path d="M1872.2 84.2969L1909.48 84.2997C1910.3 150.052 1909.76 217.847 1909.49 283.679C1897.28 283.968 1884.4 283.755 1872.13 283.734L1872.09 261.583C1855.27 284.456 1836.07 291.22 1808.48 283.169C1806.07 282.456 1804.25 281.284 1802.05 280.221C1769.69 264.618 1764.92 225.89 1770.53 194.07C1773.44 177.55 1783.89 161.458 1798.02 152.196C1811.44 143.403 1827.35 141.871 1842.77 145.378C1857.58 148.607 1864.3 155.113 1872.21 167.339L1872.2 84.2969Z" fill="#241D1F"/>
<path d="M1832.5 173.366C1853.46 172.078 1868.34 178.149 1872.06 201.442C1875.64 223.903 1872.38 246.286 1848.39 255.401C1806.63 261.048 1799.96 218.406 1812.89 188.097C1816.22 180.263 1824.49 175.582 1832.5 173.366Z" fill="white"/>
<path d="M943.587 96.53L986.078 96.5313C985.852 121.968 985.812 147.406 985.98 172.843L1061.06 172.966L1061.16 96.4688L1103.55 96.56C1103.91 115.497 1105.06 280.173 1102.32 283.672C1088.6 283.727 1074.88 283.853 1061.16 284.051L1061.09 206.362C1037.09 205.308 1010.15 205.873 985.911 205.923L985.94 283.748C971.899 283.905 957.632 283.76 943.568 283.746C943.269 275.619 943.183 266.912 943.3 258.757C944.072 204.911 941.996 150.296 943.587 96.53Z" fill="#241D1F"/>
<path d="M1466.49 644.069C1506.13 639.216 1542.24 667.271 1547.34 706.869C1552.43 746.467 1524.59 782.75 1485.02 788.088C1445.11 793.472 1408.43 765.344 1403.29 725.401C1398.15 685.459 1426.51 648.964 1466.49 644.069Z" fill="#241D1F"/>
<path d="M1467.2 674.295C1484.8 673.057 1500.35 677.205 1505.85 695.79C1513.04 720.101 1510.05 748.513 1483.24 757.612C1465.24 759.873 1450.21 754.376 1444.73 735.973C1437.93 713.12 1441.1 682.428 1467.2 674.295Z" fill="white"/>
<path d="M1625 644.089C1664.64 639.217 1700.77 667.273 1705.86 706.879C1710.95 746.483 1683.09 782.76 1643.5 788.068C1603.62 793.416 1566.98 765.294 1561.85 725.379C1556.72 685.465 1585.05 648.998 1625 644.089Z" fill="#241D1F"/>
<path d="M1625.52 674.334C1647.3 672.584 1662.12 680.216 1666.55 702.908C1671.04 725.881 1666.09 748.509 1642.35 757.522C1624.65 759.639 1609.3 755.091 1603.77 736.646C1596.76 713.331 1599.65 683.447 1625.52 674.334Z" fill="white"/>
<path d="M993.734 595.775C1009.92 593.081 1036.33 596.547 1050.13 606.075C1067.47 618.043 1071.32 631.352 1075.33 650.435C1062.22 650.354 1049.11 650.364 1036 650.465C1031.84 633.937 1022.4 626.252 1004.82 626.075C998.558 626.026 986.125 628.205 982.389 633.912C965.921 659.091 990.456 668.08 1008.11 670.484C1043.89 675.355 1078.55 681.752 1079.81 724.365C1081.05 766.218 1047.51 786.365 1009.17 787.628C964.679 787.071 937.677 771.987 931.75 726.166L971.655 726.208C973.836 736.236 975.088 741.476 983.553 748.863C1001.17 764.239 1042.19 757.243 1038.94 728.53C1036.86 712.852 1020 709.993 1007.38 707.944C989.649 705.069 968.221 702.308 953.604 691.246C933.45 675.995 931.848 638.072 947.505 618.936C959.943 603.733 974.593 598.173 993.734 595.775Z" fill="#241D1F"/>
<path d="M1253.38 585.783C1266.09 585.75 1278.8 585.802 1291.5 585.939L1291.41 668.896C1303.21 651.401 1314.67 645.241 1335.78 644.628C1358.65 643.48 1375.28 657.983 1379.68 680.061C1382.53 694.426 1381.49 710.064 1381.47 724.813L1381.36 784.381L1343.56 784.353L1343.45 735.685C1343.37 721.522 1346.82 693.843 1337.15 681.826C1326.6 668.693 1294.38 678.07 1292.79 694.846C1290.03 723.714 1291.37 754.986 1291.47 784.39L1253.32 784.38C1252.63 718.975 1252.79 651.198 1253.38 585.783Z" fill="#241D1F"/>
<path d="M1681.27 394.037C1683.56 393.858 1685.87 393.747 1688.16 393.707C1704.77 393.529 1723.12 399.313 1734.87 411.302C1752.68 429.452 1753.93 450.255 1754.05 474.009L1655.14 474.057C1655.66 478.785 1656.19 483.088 1657.77 487.767C1665.17 509.583 1696.96 518.276 1712.91 500.728C1714.91 498.525 1716.86 493.912 1718.15 491.032L1746.52 491.048C1748.81 490.963 1749.69 490.801 1751.83 491.717C1755.55 498.444 1748.29 508.264 1744.24 513.664C1733.92 526.918 1718.78 533.514 1702.74 536.134C1661.55 542.72 1622.93 521.772 1617.79 478.103C1612.5 433.11 1635.04 399.145 1681.27 394.037Z" fill="#241D1F"/>
<path d="M1685.34 420.572C1707.12 418.898 1713.56 432.209 1717.28 450.649L1688.69 450.676L1655.88 450.678C1658.78 432.829 1667.13 422.91 1685.34 420.572Z" fill="white"/>
<path d="M1183.9 144.085C1187.1 143.402 1192.41 143.627 1195.74 143.54C1220.11 142.85 1243.23 153.275 1248.87 179.006C1252.18 194.097 1251.14 210.586 1251.12 226.035L1250.99 283.708C1238.83 283.95 1226.15 283.755 1213.95 283.732L1214.03 266.831C1210.43 270.763 1205.38 275.744 1200.8 278.432C1178.16 291.706 1146.34 288.646 1131.86 265.421C1128.73 258.659 1127.09 251.303 1127.05 243.85C1126.8 201.054 1184.11 201.545 1213.56 201.565C1213.16 189.069 1212.94 175.746 1198.34 171.316C1192.21 169.488 1185.63 170.147 1179.99 173.148C1171.95 177.465 1170.23 182.059 1167.85 190.047C1156.3 190.304 1143.87 190.035 1132.26 189.991C1135.2 160.315 1155.69 146.713 1183.9 144.085Z" fill="#241D1F"/>
<path d="M1187.14 224.646C1195.34 223.608 1204.99 223.989 1213.35 224.085C1213.91 243.07 1212.55 252.884 1192.58 258.982C1181.81 260.652 1167.22 259.357 1164.63 246.297C1163.81 242.121 1164.73 237.791 1167.19 234.311C1172.35 226.882 1178.96 226.155 1187.14 224.646Z" fill="white"/>
<path d="M1577.76 144.088C1604.34 140.894 1638.43 149.35 1642.59 178.561C1647.04 209.81 1644.91 251.858 1644.82 283.713L1608.43 283.854C1608.47 278.249 1608.07 272.819 1607.73 267.229C1587.44 291.7 1542.45 293.99 1525.67 265.439C1515.46 241.386 1520.72 218.885 1546.94 208.715C1567.01 200.927 1587 201.529 1608.08 201.588C1608.01 190.839 1607.65 184.935 1602.09 175.648C1584.75 166.558 1567.35 169.059 1562.05 190.033C1553.8 190.118 1535.45 190.702 1528.15 189.651C1523.35 184.748 1531.93 168.206 1535.6 163.981C1547.07 150.74 1560.75 145.805 1577.76 144.088Z" fill="#241D1F"/>
<path d="M1580.73 224.645C1589.91 223.541 1598.79 224.002 1608.01 224.295C1607.94 243.902 1606.86 252.701 1586.43 258.992C1575.85 260.591 1561.41 259.437 1558.46 246.776C1557.52 242.571 1558.33 238.159 1560.73 234.57C1565.7 227.092 1572.73 226.204 1580.73 224.645Z" fill="white"/>
<path d="M1543.72 394.002C1545.45 393.887 1547.18 393.815 1548.91 393.783C1598.26 393.004 1594.94 439.799 1594.97 474.331L1595.03 534.222C1582.54 533.878 1570.05 533.865 1557.56 534.184C1556.99 505.489 1558.18 476.824 1557.13 448.061C1556.08 419.376 1523.38 418.583 1508.99 437.314C1502.45 449.015 1504.89 515.563 1504.94 533.88L1466.81 534.056L1466.79 396.766C1479.55 396.749 1492.29 396.808 1505.05 396.945L1504.96 418.483C1516.03 402.125 1524.02 396.495 1543.72 394.002Z" fill="#241D1F"/>
<path d="M1198.87 396.782L1236.55 396.917L1236.47 446.338L1236.45 533.837C1224.02 534.031 1211.31 533.882 1198.86 533.873L1198.97 512.811C1195.63 517.312 1192.15 521.746 1187.93 525.456C1177.51 534.597 1164.64 537.65 1151.01 536.701C1139.38 535.89 1128.86 531.709 1121.11 522.659C1115.58 516.193 1112.27 508.274 1110.63 499.972C1107.77 485.459 1108.26 414.187 1109.48 397.173C1121.25 396.531 1134.58 396.831 1146.5 396.868L1146.42 453.451C1146.42 464.566 1145.6 480.841 1147.8 491.03C1153.41 516.874 1194.23 511.337 1197.66 485.213C1199.43 471.673 1199.02 461.378 1198.96 448.145L1198.87 396.782Z" fill="#241D1F"/>
<path d="M1946.62 394.011C1980.18 391.005 2002.73 402.307 2009.33 436.275C1997.87 436.163 1986.42 436.194 1974.96 436.371C1971.4 426.851 1969.77 423.48 1959.14 420.296C1941.41 414.992 1920.42 436.128 1943.82 445.368C1961.92 451.961 1985.85 449.84 2001.46 462.864C2016.42 475.329 2016.54 506.09 2003.33 520.154C1989.82 534.542 1974.97 535.974 1956.63 536.961C1937.23 537.908 1915.14 531.56 1903.73 514.845C1898.38 507.018 1897.37 500.181 1896.01 491.059L1931.23 491.039C1937.05 511.935 1957.15 516.817 1974.7 502.664C1979.53 498.771 1976.35 487.979 1970.53 485.443C1945.16 474.39 1904.07 481.369 1899.23 443.836C1895.14 412.965 1918.34 397.437 1946.62 394.011Z" fill="#241D1F"/>
<path d="M1815.48 393.969C1850.35 390.818 1873.35 401.035 1880.85 436.279C1869.32 436.125 1857.78 436.172 1846.24 436.42C1844.92 432.961 1844.06 429.941 1841.53 426.536C1832.99 415.046 1804.86 418.697 1804.87 434.43C1804.89 446.163 1829.17 449.194 1837.07 450.267C1848.69 451.841 1864.5 455.403 1873.41 463.31C1887.73 476.007 1887.97 506.616 1874.51 520.162C1861.5 533.906 1848.35 535.942 1830.69 536.749C1797.67 538.2 1771.98 526.075 1767.48 491.072L1802.29 491.06C1803.89 496.307 1805.06 500.513 1809.72 504.564C1820.67 514.085 1850.6 512.852 1847.54 492.705C1846.11 484.91 1832.63 481.136 1825.28 480.483C1787.31 477.107 1752.93 454.558 1777.7 413.297C1784.33 402.269 1801.78 395.815 1815.48 393.969Z" fill="#241D1F"/>
<path d="M1307.1 394.042C1341.31 390.984 1363.47 401.991 1370.94 436.238L1335.85 436.301C1332.92 427.334 1331.55 424.013 1321.91 420.582C1312.49 417.226 1294.41 422.633 1295.07 434.467C1295.96 445.045 1315.27 449.415 1324.47 449.79C1366.22 451.491 1390.54 484.972 1363.77 520.885C1354.23 533.691 1335.05 536.085 1318.32 536.911C1286.35 538.666 1261.21 524.452 1257.59 491.017L1292.14 491.064C1293.78 496.193 1295.34 501.228 1299.74 504.643C1306.17 509.654 1313.9 510.926 1321.87 509.896C1327.08 509.223 1332.45 507.348 1335.73 502.997C1337.46 500.707 1338.28 497.292 1337.7 494.423C1333.91 475.15 1288.44 481.644 1273.04 466.945C1265.87 461.356 1261.64 454.552 1260.61 445.126C1257.03 412.781 1278.53 397.712 1307.1 394.042Z" fill="#241D1F"/>
<path d="M1156.51 644.963C1196.86 640.596 1224.5 656.567 1231.56 697.498C1219.65 697.606 1207.75 697.573 1195.85 697.399C1192.69 688.105 1189.4 679.754 1179 676.549C1160.76 671.688 1143.69 678.143 1137.33 698.385C1127.72 728.963 1143.34 772.68 1183.26 755.403C1191.64 751.774 1195.69 741.964 1198.17 733.045L1231.95 733.064C1228.87 786.467 1162.57 802.23 1124.21 774.965C1109.77 764.682 1100.04 749.037 1097.22 731.53C1090.32 688.875 1112.73 651.906 1156.51 644.963Z" fill="#241D1F"/>
<path d="M1479.5 146.597C1491.54 146.477 1503.58 146.522 1515.62 146.732C1512.79 152.953 1507.13 170.621 1504.55 177.892C1492.46 210.653 1476.78 251.246 1466.09 283.656C1452.49 284.082 1437.65 283.772 1423.96 283.743C1408.38 241.774 1387.13 189.084 1374.01 146.557L1414.23 146.596C1420.47 162.636 1441.48 234.347 1447.81 243.028C1449.75 234.155 1455.22 218.692 1458.17 209.717C1465.09 188.613 1472.2 167.572 1479.5 146.597Z" fill="#241D1F"/>
<path d="M1729.96 585.734C1742.41 585.735 1754.88 585.812 1767.34 585.964C1766.43 651.337 1767.24 718.901 1767.18 784.396L1729.76 784.379C1729.73 718.421 1729.16 651.627 1729.96 585.734Z" fill="#241D1F"/>
<path d="M1354.56 144.944C1357.49 144.559 1360.66 144.219 1362.99 145.747C1363.93 153.061 1363.41 171.211 1363.35 179.423C1328.8 181.721 1318.55 187.959 1318.46 224.788C1318.43 244.22 1318.53 264.228 1318.78 283.72L1280.73 283.827L1280.62 268.439L1280.75 146.59L1318.87 146.62C1318.68 155.175 1318.55 163.73 1318.49 172.287C1328.59 156.509 1335.07 147.996 1354.56 144.944Z" fill="#241D1F"/>
<path d="M1748.39 144.898C1751.3 144.683 1754.14 144.09 1756.59 145.534C1757.59 152.196 1757.04 171.722 1756.97 179.404C1717.69 182.025 1711.7 191.813 1712.46 230.832C1712.79 247.575 1712.55 266.792 1712.59 283.705L1675.38 283.834L1675.48 269.182L1675.47 146.524L1712.69 146.632L1712.77 171.832C1722.23 156.185 1729.65 148.244 1748.39 144.898Z" fill="#241D1F"/>
<path d="M1396.93 396.75L1434.84 396.919C1434.42 412.431 1435.61 529.168 1433.59 533.923L1396.9 533.854L1396.93 396.75Z" fill="#241D1F"/>
<path d="M1408.34 337.791C1425.09 336.381 1440.84 342.598 1436.42 364.43C1435.2 370.413 1428.05 374.856 1422.63 377.403C1417.23 378.336 1413.11 378.889 1407.81 376.891C1402.44 374.889 1398.13 370.762 1395.88 365.481C1390.99 353.817 1397.1 342.523 1408.34 337.791Z" fill="#241D1F"/>
</svg>
